{
	"asset":{
		"generator":"Khronos glTF Blender I/O v4.2.70",
		"version":"2.0"
	},
	"scene":0,
	"scenes":[
		{
			"name":"Scene",
			"nodes":[
				66
			]
		}
	],
	"nodes":[
		{
			"name":"Head",
			"rotation":[
				-0.13207003474235535,
				-2.3796490111749335e-08,
				-5.630571120462946e-09,
				0.991240382194519
			],
			"scale":[
				1,
				0.9999998211860657,
				0.9999999403953552
			],
			"translation":[
				-2.664047791639231e-16,
				0.08285234868526459,
				-3.725290298461914e-09
			]
		},
		{
			"children":[
				0
			],
			"name":"neck_01",
			"rotation":[
				0.2572591006755829,
				3.3992924031167604e-09,
				1.6238796973766512e-08,
				0.9663424491882324
			],
			"translation":[
				2.620175084861484e-15,
				0.21509301662445068,
				-3.3527612686157227e-08
			]
		},
		{
			"name":"index_04_leaf_l",
			"rotation":[
				-3.795790348704031e-08,
				0.9998229742050171,
				-1.9780463933471992e-09,
				0.018816031515598297
			],
			"scale":[
				0.9999999403953552,
				0.9999999403953552,
				1.0000001192092896
			],
			"translation":[
				-6.058144208509475e-09,
				0.02411006949841976,
				-1.1676820577122271e-07
			]
		},
		{
			"children":[
				2
			],
			"name":"index_03_l",
			"rotation":[
				1.9896581306966254e-06,
				-7.072452262946172e-06,
				-0.00018567379447631538,
				1
			],
			"translation":[
				-1.406078808940947e-09,
				0.027911381796002388,
				-8.001097739906982e-08
			]
		},
		{
			"children":[
				3
			],
			"name":"index_02_l",
			"rotation":[
				4.782532982972043e-07,
				4.951050868839957e-05,
				-0.0005330783315002918,
				0.9999998807907104
			],
			"scale":[
				0.9999999403953552,
				0.9999999403953552,
				1
			],
			"translation":[
				-1.8044374883174896e-09,
				0.03261261805891991,
				-9.766517905518413e-08
			]
		},
		{
			"children":[
				4
			],
			"name":"index_01_l",
			"rotation":[
				0.008505051024258137,
				0.7068115472793579,
				-0.018524061888456345,
				0.707108199596405
			],
			"scale":[
				1,
				0.9999998807907104,
				1
			],
			"translation":[
				0.007159597706049681,
				0.11740252375602722,
				0.04064333438873291
			]
		},
		{
			"name":"middle_04_leaf_l",
			"rotation":[
				1.0966940688916793e-09,
				0.9998255372047424,
				-1.2807921390134425e-09,
				0.018679797649383545
			],
			"scale":[
				1,
				0.9999997019767761,
				1
			],
			"translation":[
				9.868017514236271e-10,
				0.030519720166921616,
				1.6195917851291597e-07
			]
		},
		{
			"children":[
				6
			],
			"name":"middle_03_l",
			"rotation":[
				-3.5382427654440107e-07,
				-5.4317461035680026e-05,
				-0.001419770997017622,
				0.9999989867210388
			],
			"scale":[
				0.9999999403953552,
				0.9999998807907104,
				1
			],
			"translation":[
				-9.913492249324918e-11,
				0.0301167294383049,
				-4.860849003307521e-07
			]
		},
		{
			"children":[
				7
			],
			"name":"middle_02_l",
			"rotation":[
				5.930972974965698e-07,
				7.840072794351727e-05,
				0.0020527916494756937,
				0.9999979138374329
			],
			"translation":[
				1.04919308796525e-08,
				0.037526145577430725,
				-1.4822944649495184e-07
			]
		},
		{
			"children":[
				8
			],
			"name":"middle_01_l",
			"rotation":[
				0.0050673349760472775,
				0.7067627906799316,
				-0.021958163008093834,
				0.7070916295051575
			],
			"scale":[
				1,
				0.9999999403953552,
				0.9999999403953552
			],
			"translation":[
				0.004682793281972408,
				0.1154387891292572,
				0.015113371424376965
			]
		},
		{
			"name":"pinky_04_leaf_l",
			"rotation":[
				-3.7162758981246213e-10,
				0.9998291730880737,
				-3.3802596277610064e-09,
				0.018483733758330345
			],
			"scale":[
				1,
				1,
				0.9999999403953552
			],
			"translation":[
				3.082277544308454e-09,
				0.021523354575037956,
				1.6657577361911535e-07
			]
		},
		{
			"children":[
				10
			],
			"name":"pinky_03_l",
			"rotation":[
				3.2629914130666293e-06,
				-0.00013734928506892174,
				0.00046609193668700755,
				0.9999998807907104
			],
			"scale":[
				0.9999999403953552,
				0.9999999403953552,
				0.9999999403953552
			],
			"translation":[
				-2.9976945370435715e-09,
				0.02743080072104931,
				9.992072591558099e-08
			]
		},
		{
			"children":[
				11
			],
			"name":"pinky_02_l",
			"rotation":[
				4.3799957438750425e-07,
				9.533899719826877e-05,
				-0.0015674429014325142,
				0.9999987483024597
			],
			"scale":[
				1.0000001192092896,
				1,
				1
			],
			"translation":[
				-7.804374035913497e-09,
				0.03163106366991997,
				6.033951649442315e-08
			]
		},
		{
			"children":[
				12
			],
			"name":"pinky_01_l",
			"rotation":[
				0.0026010102592408657,
				0.7066821455955505,
				-0.024414746090769768,
				0.7071050405502319
			],
			"scale":[
				1.0000001192092896,
				1,
				1
			],
			"translation":[
				0.006037859711796045,
				0.09854134172201157,
				-0.034617360681295395
			]
		},
		{
			"name":"ring_04_leaf_l",
			"rotation":[
				-2.2568658053501167e-09,
				0.9998185634613037,
				3.6122600022281404e-08,
				0.019049758091568947
			],
			"translation":[
				1.446460373699665e-08,
				0.029101694002747536,
				1.0202711564488709e-08
			]
		},
		{
			"children":[
				14
			],
			"name":"ring_03_l",
			"rotation":[
				3.610604153436725e-06,
				-0.00025298012769781053,
				-0.0033875794615596533,
				0.9999942183494568
			],
			"scale":[
				0.9999999403953552,
				1,
				0.9999999403953552
			],
			"translation":[
				-1.3890712580177933e-08,
				0.028300121426582336,
				-1.202388375531882e-07
			]
		},
		{
			"children":[
				15
			],
			"name":"ring_02_l",
			"rotation":[
				-4.786812496604398e-06,
				0.0002185708872275427,
				0.002399766119197011,
				0.9999971389770508
			],
			"scale":[
				0.9999999403953552,
				0.9999999403953552,
				0.9999999403953552
			],
			"translation":[
				-3.754394128918648e-09,
				0.03600108250975609,
				1.1327756510581821e-08
			]
		},
		{
			"children":[
				16
			],
			"name":"ring_01_l",
			"rotation":[
				0.015323796309530735,
				0.7069170475006104,
				-0.011713264510035515,
				0.7070334553718567
			],
			"scale":[
				1.0000001192092896,
				1,
				1
			],
			"translation":[
				0.004752061795443296,
				0.1094006597995758,
				-0.012370181269943714
			]
		},
		{
			"name":"thumb_04_leaf_l",
			"rotation":[
				-5.876720621245113e-08,
				0.38270872831344604,
				-2.4288132394190143e-08,
				0.9238690733909607
			],
			"scale":[
				1,
				0.9999999403953552,
				0.9999999403953552
			],
			"translation":[
				1.816079020500183e-07,
				0.034558266401290894,
				1.6996636986732483e-08
			]
		},
		{
			"children":[
				18
			],
			"name":"thumb_03_l",
			"rotation":[
				-8.987264266124839e-08,
				-2.966419924632646e-05,
				1.66334234563692e-06,
				1
			],
			"scale":[
				0.9999999403953552,
				0.9999999403953552,
				0.9999999403953552
			],
			"translation":[
				-1.1542579159140587e-07,
				0.035490769892930984,
				-5.145557224750519e-08
			]
		},
		{
			"children":[
				19
			],
			"name":"thumb_02_l",
			"rotation":[
				7.464404916390777e-07,
				4.731613444164395e-06,
				-4.019588232040405e-06,
				1
			],
			"translation":[
				-6.356276571750641e-08,
				0.039519909769296646,
				2.8870999813079834e-08
			]
		},
		{
			"children":[
				20
			],
			"name":"thumb_01_l",
			"rotation":[
				-0.24446336925029755,
				-0.9435675740242004,
				-0.21606147289276123,
				0.05688001587986946
			],
			"scale":[
				1.0000001192092896,
				0.9999998807907104,
				1.0000001192092896
			],
			"translation":[
				0.0274813249707222,
				0.03381356969475746,
				0.041063159704208374
			]
		},
		{
			"children":[
				5,
				9,
				13,
				17,
				21
			],
			"name":"hand_l",
			"rotation":[
				-0.015601630322635174,
				-4.1716828036442166e-07,
				-1.0911009873382227e-08,
				0.9998782873153687
			],
			"scale":[
				1,
				1,
				0.9999999403953552
			],
			"translation":[
				-1.4081911103858147e-07,
				0.24359425902366638,
				2.855699676729273e-09
			]
		},
		{
			"children":[
				22
			],
			"name":"lowerarm_l",
			"rotation":[
				0.03073216788470745,
				4.159875970799476e-05,
				-1.4790477962378645e-06,
				0.999527633190155
			],
			"scale":[
				1,
				1,
				1.0000001192092896
			],
			"translation":[
				1.4407407888938906e-07,
				0.25111502408981323,
				-2.7903297450393438e-08
			]
		},
		{
			"children":[
				23
			],
			"name":"upperarm_l",
			"rotation":[
				0.14980319142341614,
				0.6911308169364929,
				-0.14938825368881226,
				0.6910718679428101
			],
			"scale":[
				0.9999998807907104,
				0.9999997615814209,
				0.9999999403953552
			],
			"translation":[
				-0.009135748259723186,
				0.20573896169662476,
				-0.039671313017606735
			]
		},
		{
			"children":[
				24
			],
			"name":"clavicle_l",
			"rotation":[
				-0.5287374258041382,
				-0.3291020095348358,
				-0.41380810737609863,
				0.6639965772628784
			],
			"scale":[
				1.0000001192092896,
				1.0000001192092896,
				1.0000001192092896
			],
			"translation":[
				0.03139999136328697,
				0.17371766269207,
				0.06732846051454544
			]
		},
		{
			"name":"index_04_leaf_r",
			"rotation":[
				8.692755404382524e-10,
				-0.9998229742050171,
				1.6919585177355145e-10,
				0.018816031515598297
			],
			"scale":[
				0.9999999403953552,
				1,
				1.0000001192092896
			],
			"translation":[
				6.983100320212543e-09,
				0.024110103026032448,
				-1.1108022590633482e-07
			]
		},
		{
			"children":[
				26
			],
			"name":"index_03_r",
			"rotation":[
				1.987386440305272e-06,
				7.072570042510051e-06,
				0.00018564611673355103,
				1
			],
			"scale":[
				1,
				0.9999999403953552,
				1
			],
			"translation":[
				2.4656401365064085e-09,
				0.027911417186260223,
				4.103185347048566e-08
			]
		},
		{
			"children":[
				27
			],
			"name":"index_02_r",
			"rotation":[
				4.107451161416975e-07,
				-4.939567588735372e-05,
				0.0005330644780769944,
				0.9999998807907104
			],
			"scale":[
				0.9999999403953552,
				1.0000001192092896,
				1
			],
			"translation":[
				4.220055416226387e-10,
				0.032612524926662445,
				2.8967406251467764e-08
			]
		},
		{
			"children":[
				28
			],
			"name":"index_01_r",
			"rotation":[
				0.00850504357367754,
				-0.7068116664886475,
				0.018524160608649254,
				0.7071080207824707
			],
			"translation":[
				-0.007159359287470579,
				0.11740272492170334,
				0.04064333438873291
			]
		},
		{
			"name":"middle_04_leaf_r",
			"rotation":[
				-6.272630770354226e-08,
				-0.9998255372047424,
				-1.3076267846301448e-09,
				0.018679680302739143
			],
			"translation":[
				1.7789716366678476e-09,
				0.03051966242492199,
				1.0396252037025988e-07
			]
		},
		{
			"children":[
				30
			],
			"name":"middle_03_r",
			"rotation":[
				-4.309663381718565e-07,
				5.4365846153814346e-05,
				0.0014198528369888663,
				0.9999989867210388
			],
			"scale":[
				0.9999999403953552,
				0.9999998807907104,
				1
			],
			"translation":[
				-5.094989319331944e-09,
				0.0301166120916605,
				-1.9648723537102342e-07
			]
		},
		{
			"children":[
				31
			],
			"name":"middle_02_r",
			"rotation":[
				5.935343097007717e-07,
				-7.84287040005438e-05,
				-0.0020528347231447697,
				0.9999979138374329
			],
			"translation":[
				-4.865796654485166e-09,
				0.03752609342336655,
				-2.1543019101954997e-07
			]
		},
		{
			"children":[
				32
			],
			"name":"middle_01_r",
			"rotation":[
				0.00506735360249877,
				-0.7067627906799316,
				0.021958187222480774,
				0.7070916295051575
			],
			"scale":[
				1,
				1,
				0.9999999403953552
			],
			"translation":[
				-0.004682554863393307,
				0.11543899029493332,
				0.015113379806280136
			]
		},
		{
			"name":"pinky_04_leaf_r",
			"rotation":[
				-2.9793953970624898e-09,
				-0.9998291730880737,
				1.5236639727689294e-09,
				0.018483733758330345
			],
			"scale":[
				1,
				0.9999999403953552,
				0.9999999403953552
			],
			"translation":[
				4.731191438622773e-09,
				0.02152330055832863,
				3.4269760362803936e-08
			]
		},
		{
			"children":[
				34
			],
			"name":"pinky_03_r",
			"rotation":[
				3.2109646781464107e-06,
				0.0001374142011627555,
				-0.00046599970664829016,
				0.9999998807907104
			],
			"scale":[
				0.9999998807907104,
				0.9999998807907104,
				0.9999998807907104
			],
			"translation":[
				-4.831235855817795e-09,
				0.027430754154920578,
				1.0120857041329145e-08
			]
		},
		{
			"children":[
				35
			],
			"name":"pinky_02_r",
			"rotation":[
				4.24268051801846e-07,
				-9.539943130221218e-05,
				0.0015674271853640676,
				0.9999987483024597
			],
			"scale":[
				1.0000001192092896,
				0.9999998211860657,
				1
			],
			"translation":[
				-7.42329575587064e-09,
				0.03163103759288788,
				-6.815389497205615e-08
			]
		},
		{
			"children":[
				36
			],
			"name":"pinky_01_r",
			"rotation":[
				0.0026011040899902582,
				-0.7066822052001953,
				0.0244146678596735,
				0.7071049213409424
			],
			"translation":[
				-0.006037502083927393,
				0.09854143112897873,
				-0.034617356956005096
			]
		},
		{
			"name":"ring_04_leaf_r",
			"rotation":[
				2.981410118785277e-10,
				-0.9998185634613037,
				-3.117297309174205e-09,
				0.019049759954214096
			],
			"scale":[
				0.9999999403953552,
				1,
				1
			],
			"translation":[
				1.775333657860756e-09,
				0.029101796448230743,
				-3.895547706633806e-08
			]
		},
		{
			"children":[
				38
			],
			"name":"ring_03_r",
			"rotation":[
				3.689252253025188e-06,
				0.0002528241602703929,
				0.0033875645603984594,
				0.9999942183494568
			],
			"translation":[
				-6.965819920878857e-09,
				0.028300154954195023,
				-6.318441592156887e-08
			]
		},
		{
			"children":[
				39
			],
			"name":"ring_02_r",
			"rotation":[
				-4.8962715482048225e-06,
				-0.00021849632321391255,
				-0.002399731194600463,
				0.9999971389770508
			],
			"scale":[
				0.9999999403953552,
				1,
				0.9999999403953552
			],
			"translation":[
				5.966285243630409e-09,
				0.036000918596982956,
				-2.1795131033286452e-07
			]
		},
		{
			"children":[
				40
			],
			"name":"ring_01_r",
			"rotation":[
				0.015323854051530361,
				-0.7069171071052551,
				0.011713293381035328,
				0.7070333957672119
			],
			"translation":[
				-0.004751823376864195,
				0.10940086096525192,
				-0.012370169162750244
			]
		},
		{
			"name":"thumb_04_leaf_r",
			"rotation":[
				-2.2728777082647866e-08,
				-0.38270875811576843,
				3.5408380227863745e-08,
				0.9238690137863159
			],
			"scale":[
				0.9999999403953552,
				1,
				0.9999999403953552
			],
			"translation":[
				2.367887645959854e-07,
				0.03455822542309761,
				-1.3271346688270569e-08
			]
		},
		{
			"children":[
				42
			],
			"name":"thumb_03_r",
			"rotation":[
				-2.1717276865729218e-07,
				2.963992301374674e-05,
				-2.0712614059448242e-06,
				1
			],
			"scale":[
				1,
				1.0000001192092896,
				1
			],
			"translation":[
				-8.562346920371056e-08,
				0.035490814596414566,
				-4.423782229423523e-09
			]
		},
		{
			"children":[
				43
			],
			"name":"thumb_02_r",
			"rotation":[
				6.812333595007658e-07,
				-4.778325092047453e-06,
				3.1776726245880127e-06,
				1
			],
			"translation":[
				-2.842862159013748e-07,
				0.03951990604400635,
				2.0721927285194397e-08
			]
		},
		{
			"children":[
				44
			],
			"name":"thumb_01_r",
			"rotation":[
				-0.2444625347852707,
				0.9435678720474243,
				0.21606136858463287,
				0.05687990412116051
			],
			"scale":[
				0.9999999403953552,
				0.9999999403953552,
				0.9999999403953552
			],
			"translation":[
				-0.027481086552143097,
				0.03381364792585373,
				0.04106311500072479
			]
		},
		{
			"children":[
				29,
				33,
				37,
				41,
				45
			],
			"name":"hand_r",
			"rotation":[
				-0.015601623803377151,
				4.171719751866476e-07,
				1.0911753278719516e-08,
				0.9998782873153687
			],
			"scale":[
				1,
				0.9999999403953552,
				0.9999999403953552
			],
			"translation":[
				2.1608238753856313e-08,
				0.24359437823295593,
				2.5585563889762852e-08
			]
		},
		{
			"children":[
				46
			],
			"name":"lowerarm_r",
			"rotation":[
				0.030732164159417152,
				-4.1541625250829384e-05,
				1.4910922345734434e-06,
				0.9995276927947998
			],
			"translation":[
				-1.6359388155251509e-07,
				0.251115083694458,
				-3.507011570036411e-08
			]
		},
		{
			"children":[
				47
			],
			"name":"upperarm_r",
			"rotation":[
				0.14980319142341614,
				-0.6911307573318481,
				0.14938822388648987,
				0.6910719275474548
			],
			"scale":[
				0.9999998211860657,
				0.999999463558197,
				0.9999998807907104
			],
			"translation":[
				0.009135753847658634,
				0.20573897659778595,
				-0.039671435952186584
			]
		},
		{
			"children":[
				48
			],
			"name":"clavicle_r",
			"rotation":[
				-0.528737485408783,
				0.32910194993019104,
				0.4138081967830658,
				0.6639965772628784
			],
			"scale":[
				1.0000001192092896,
				1,
				1
			],
			"translation":[
				-0.03139999881386757,
				0.17371766269207,
				0.06732845306396484
			]
		},
		{
			"children":[
				1,
				25,
				49
			],
			"name":"spine_03",
			"rotation":[
				-0.12418895214796066,
				-6.394201790271836e-08,
				-1.5405081654762398e-08,
				0.992258608341217
			],
			"scale":[
				1,
				0.9999999403953552,
				1
			],
			"translation":[
				6.824259429441147e-15,
				0.13313379883766174,
				-3.585591912269592e-08
			]
		},
		{
			"children":[
				50
			],
			"name":"spine_02",
			"rotation":[
				-0.03958538547158241,
				6.066800040116505e-08,
				-5.057856355961121e-09,
				0.9992161989212036
			],
			"translation":[
				1.304512053934559e-15,
				0.10634986311197281,
				-1.7462298274040222e-08
			]
		},
		{
			"children":[
				51
			],
			"name":"spine_01",
			"rotation":[
				-0.09185618162155151,
				3.709542895080631e-09,
				-5.817246684358679e-09,
				0.9957722425460815
			],
			"scale":[
				1,
				1.0000001192092896,
				1.0000001192092896
			],
			"translation":[
				2.7755575615628914e-15,
				0.12809227406978607,
				-4.6566128730773926e-08
			]
		},
		{
			"name":"ball_leaf_l",
			"rotation":[
				2.9802313505911115e-08,
				-6.686533282618257e-08,
				-1.2218113992063222e-14,
				1
			],
			"translation":[
				-2.0326675898019175e-09,
				0.07889977842569351,
				-8.036904475261508e-10
			]
		},
		{
			"children":[
				53
			],
			"name":"ball_l",
			"rotation":[
				1.0309339870673284e-07,
				0.9731195569038391,
				-0.23030056059360504,
				3.054782382605481e-07
			],
			"scale":[
				1,
				1.0000003576278687,
				1.0000001192092896
			],
			"translation":[
				-1.5684268106497257e-08,
				0.1590735912322998,
				-1.446353792289301e-08
			]
		},
		{
			"children":[
				54
			],
			"name":"foot_l",
			"rotation":[
				-0.5721679329872131,
				3.0618258506365237e-07,
				-2.2213410488802765e-07,
				0.8201364874839783
			],
			"scale":[
				1,
				1,
				0.9999999403953552
			],
			"translation":[
				-1.4400548531412483e-09,
				0.4587884247303009,
				-4.81596762469394e-09
			]
		},
		{
			"children":[
				55
			],
			"name":"calf_l",
			"rotation":[
				0.05598892644047737,
				-7.673352619974594e-09,
				9.688773117133564e-10,
				0.998431384563446
			],
			"translation":[
				-1.6316912265779138e-08,
				0.42880019545555115,
				-1.7531172069595868e-09
			]
		},
		{
			"children":[
				56
			],
			"name":"thigh_l",
			"rotation":[
				0.9898310303688049,
				-2.3808701676841793e-09,
				4.4506979435254834e-08,
				0.14224839210510254
			],
			"scale":[
				1,
				1,
				1.0000009536743164
			],
			"translation":[
				0.11430513858795166,
				0.02317694202065468,
				0.0004878447507508099
			]
		},
		{
			"name":"ball_leaf_r",
			"rotation":[
				2.9802313505911115e-08,
				6.686521913934484e-08,
				1.221811483909617e-14,
				1
			],
			"translation":[
				2.0326640370882387e-09,
				0.07889977842569351,
				-8.036851184556326e-10
			]
		},
		{
			"children":[
				58
			],
			"name":"ball_r",
			"rotation":[
				1.0309334896874134e-07,
				-0.9731195569038391,
				0.23030056059360504,
				3.0547826668225753e-07
			],
			"scale":[
				1,
				1.0000003576278687,
				1.0000001192092896
			],
			"translation":[
				1.5684275211924614e-08,
				0.1590735912322998,
				-1.4463552133747726e-08
			]
		},
		{
			"children":[
				59
			],
			"name":"foot_r",
			"rotation":[
				-0.5721679329872131,
				-3.184035506365035e-07,
				2.1360808943882148e-07,
				0.8201364874839783
			],
			"scale":[
				1,
				1,
				0.9999999403953552
			],
			"translation":[
				-1.4400546310966433e-09,
				0.4587884247303009,
				-8.22254797583355e-09
			]
		},
		{
			"children":[
				60
			],
			"name":"calf_r",
			"rotation":[
				0.05598892644047737,
				-7.673352619974594e-09,
				9.688764235349367e-10,
				0.998431384563446
			],
			"translation":[
				1.3485410121916175e-08,
				0.42880019545555115,
				-1.215473499627251e-09
			]
		},
		{
			"children":[
				61
			],
			"name":"thigh_r",
			"rotation":[
				0.9898310303688049,
				-2.3808701676841793e-09,
				4.4506979435254834e-08,
				0.14224839210510254
			],
			"scale":[
				1,
				1,
				1.0000009536743164
			],
			"translation":[
				-0.11430513858795166,
				0.02317694202065468,
				0.00048783113015815616
			]
		},
		{
			"children":[
				52,
				57,
				62
			],
			"name":"pelvis",
			"rotation":[
				0.8005710244178772,
				1.7858681644611352e-08,
				2.3858875763949072e-08,
				0.5992379188537598
			],
			"translation":[
				0,
				0.042999982833862305,
				0.9490999579429626
			]
		},
		{
			"children":[
				63
			],
			"name":"root",
			"rotation":[
				-0.7071067690849304,
				0,
				0,
				0.7071067690849304
			]
		},
		{
			"mesh":0,
			"name":"Base_Feet",
			"skin":0
		},
		{
			"children":[
				65,
				64
			],
			"name":"Armature"
		}
	],
	"materials":[
		{
			"doubleSided":true,
			"name":"MI_Superhero_Male",
			"normalTexture":{
				"index":0
			},
			"pbrMetallicRoughness":{
				"baseColorTexture":{
					"index":1
				},
				"metallicFactor":0,
				"metallicRoughnessTexture":{
					"index":2
				}
			}
		}
	],
	"meshes":[
		{
			"name":"Sphere.005_Retopology.006",
			"primitives":[
				{
					"attributes":{
						"POSITION":0,
						"NORMAL":1,
						"TEXCOORD_0":2,
						"TEXCOORD_1":3,
						"COLOR_0":4,
						"COLOR_1":5,
						"JOINTS_0":6,
						"WEIGHTS_0":7
					},
					"indices":8,
					"material":0
				}
			]
		}
	],
	"textures":[
		{
			"sampler":0,
			"source":0
		},
		{
			"sampler":0,
			"source":1
		},
		{
			"sampler":0,
			"source":2
		}
	],
	"images":[
		{
			"mimeType":"image/png",
			"name":"T_Superhero_Male_Normal",
			"uri":"T_Superhero_Male_Normal.png"
		},
		{
			"mimeType":"image/png",
			"name":"T_Superhero_Male_Dark",
			"uri":"T_Superhero_Male_Dark.png"
		},
		{
			"mimeType":"image/png",
			"name":"T_Superhero_Male_Roughness",
			"uri":"T_Superhero_Male_Roughness.png"
		}
	],
	"skins":[
		{
			"inverseBindMatrices":9,
			"joints":[
				64,
				63,
				52,
				51,
				50,
				1,
				0,
				25,
				24,
				23,
				22,
				5,
				4,
				3,
				2,
				9,
				8,
				7,
				6,
				13,
				12,
				11,
				10,
				17,
				16,
				15,
				14,
				21,
				20,
				19,
				18,
				49,
				48,
				47,
				46,
				29,
				28,
				27,
				26,
				33,
				32,
				31,
				30,
				37,
				36,
				35,
				34,
				41,
				40,
				39,
				38,
				45,
				44,
				43,
				42,
				57,
				56,
				55,
				54,
				53,
				62,
				61,
				60,
				59,
				58
			],
			"name":"Armature"
		}
	],
	"accessors":[
		{
			"bufferView":0,
			"componentType":5126,
			"count":784,
			"max":[
				0.18651029467582703,
				0.1036660224199295,
				0.12803706526756287
			],
			"min":[
				-0.18651023507118225,
				-0.009510005824267864,
				-0.14159123599529266
			],
			"type":"VEC3"
		},
		{
			"bufferView":1,
			"componentType":5126,
			"count":784,
			"type":"VEC3"
		},
		{
			"bufferView":2,
			"componentType":5126,
			"count":784,
			"type":"VEC2"
		},
		{
			"bufferView":3,
			"componentType":5126,
			"count":784,
			"type":"VEC2"
		},
		{
			"bufferView":4,
			"componentType":5126,
			"count":784,
			"type":"VEC3"
		},
		{
			"bufferView":5,
			"componentType":5126,
			"count":784,
			"type":"VEC3"
		},
		{
			"bufferView":6,
			"componentType":5121,
			"count":784,
			"type":"VEC4"
		},
		{
			"bufferView":7,
			"componentType":5126,
			"count":784,
			"type":"VEC4"
		},
		{
			"bufferView":8,
			"componentType":5123,
			"count":3870,
			"type":"SCALAR"
		},
		{
			"bufferView":9,
			"componentType":5126,
			"count":65,
			"type":"MAT4"
		}
	],
	"bufferViews":[
		{
			"buffer":0,
			"byteLength":9408,
			"byteOffset":0,
			"target":34962
		},
		{
			"buffer":0,
			"byteLength":9408,
			"byteOffset":9408,
			"target":34962
		},
		{
			"buffer":0,
			"byteLength":6272,
			"byteOffset":18816,
			"target":34962
		},
		{
			"buffer":0,
			"byteLength":6272,
			"byteOffset":25088,
			"target":34962
		},
		{
			"buffer":0,
			"byteLength":9408,
			"byteOffset":31360,
			"target":34962
		},
		{
			"buffer":0,
			"byteLength":9408,
			"byteOffset":40768,
			"target":34962
		},
		{
			"buffer":0,
			"byteLength":3136,
			"byteOffset":50176,
			"target":34962
		},
		{
			"buffer":0,
			"byteLength":12544,
			"byteOffset":53312,
			"target":34962
		},
		{
			"buffer":0,
			"byteLength":7740,
			"byteOffset":65856,
			"target":34963
		},
		{
			"buffer":0,
			"byteLength":4160,
			"byteOffset":73596
		}
	],
	"samplers":[
		{
			"magFilter":9729,
			"minFilter":9987
		}
	],
	"buffers":[
		{
			"byteLength":77756,
			"uri":"Base_Male_Feet.bin"
		}
	]
}
