{
	"asset":{
		"generator":"Khronos glTF Blender I/O v4.2.70",
		"version":"2.0"
	},
	"scene":0,
	"scenes":[
		{
			"name":"Scene",
			"nodes":[
				68
			]
		}
	],
	"nodes":[
		{
			"name":"Head",
			"rotation":[
				-0.20467457175254822,
				-2.2516413622497566e-08,
				-1.7280171960010193e-08,
				0.978830099105835
			],
			"scale":[
				1,
				0.9999998807907104,
				1
			],
			"translation":[
				-1.5835206410019786e-14,
				0.07119113206863403,
				9.872019290924072e-08
			]
		},
		{
			"children":[
				0
			],
			"name":"neck_01",
			"rotation":[
				0.30883726477622986,
				5.720464990588425e-09,
				3.132118564508346e-08,
				0.9511148929595947
			],
			"scale":[
				1,
				1,
				0.9999998807907104
			],
			"translation":[
				1.3329181508536792e-15,
				0.19815585017204285,
				-4.470348358154297e-08
			]
		},
		{
			"name":"index_04_leaf_l",
			"rotation":[
				-9.313247950615278e-10,
				1,
				2.9871576149735667e-15,
				3.532567461661529e-06
			],
			"scale":[
				1,
				1,
				0.9999999403953552
			],
			"translation":[
				1.4606484910473228e-09,
				0.023510469123721123,
				2.04000400572113e-07
			]
		},
		{
			"children":[
				2
			],
			"name":"index_03_l",
			"rotation":[
				9.011250634571866e-10,
				-3.837929973826704e-12,
				-0.0001332918182015419,
				1
			],
			"translation":[
				1.4624674804508686e-09,
				0.027111725881695747,
				-3.299642514775769e-08
			]
		},
		{
			"children":[
				3
			],
			"name":"index_02_l",
			"rotation":[
				1.5862399393995474e-08,
				5.83360488803919e-08,
				-0.0021401806734502316,
				0.9999977350234985
			],
			"scale":[
				0.9999998807907104,
				0.9999999403953552,
				0.9999999403953552
			],
			"translation":[
				1.5270416042767465e-09,
				0.03171014040708542,
				1.1075990613562681e-07
			]
		},
		{
			"children":[
				4
			],
			"name":"index_01_l",
			"rotation":[
				-0.0033092708326876163,
				0.7071018218994141,
				-0.003309286665171385,
				0.7070962190628052
			],
			"scale":[
				1.0000001192092896,
				1.0000001192092896,
				1
			],
			"translation":[
				0.0042000943794846535,
				0.08823654800653458,
				0.036204952746629715
			]
		},
		{
			"name":"middle_04_leaf_l",
			"rotation":[
				-5.256681176704268e-16,
				1,
				1.0894930790872337e-14,
				3.5325672342878534e-06
			],
			"translation":[
				1.3724275049753487e-09,
				0.02962055802345276,
				2.2495243001685594e-07
			]
		},
		{
			"children":[
				6
			],
			"name":"middle_03_l",
			"rotation":[
				2.2529144771965548e-08,
				-1.0280741535861893e-10,
				-0.0032189541961997747,
				0.9999948143959045
			],
			"scale":[
				0.9999998807907104,
				0.9999999403953552,
				1
			],
			"translation":[
				-4.2145984480157495e-09,
				0.029313722625374794,
				2.2329771809381782e-08
			]
		},
		{
			"children":[
				7
			],
			"name":"middle_02_l",
			"rotation":[
				-2.7178389316873108e-08,
				5.83328478853673e-08,
				0.003867650870233774,
				0.9999924898147583
			],
			"scale":[
				1,
				0.9999999403953552,
				1
			],
			"translation":[
				7.866219675634056e-09,
				0.036426957696676254,
				3.3635768659223686e-07
			]
		},
		{
			"children":[
				8
			],
			"name":"middle_01_l",
			"rotation":[
				-0.007979895919561386,
				0.7070646286010742,
				-0.007979941554367542,
				0.7070589065551758
			],
			"scale":[
				1,
				0.9999998211860657,
				1
			],
			"translation":[
				0.0019000378670170903,
				0.08634152263402939,
				0.010671657510101795
			]
		},
		{
			"name":"pinky_04_leaf_l",
			"rotation":[
				-1.862647813766216e-09,
				1,
				3.3818912737783053e-16,
				3.651776296464959e-06
			],
			"scale":[
				1,
				0.9999997019767761,
				1
			],
			"translation":[
				-2.7339410735294223e-09,
				0.02091929316520691,
				1.5546240206276707e-07
			]
		},
		{
			"children":[
				10
			],
			"name":"pinky_03_l",
			"rotation":[
				-2.0286783808387554e-08,
				8.802773093785632e-11,
				0.0028987275436520576,
				0.9999958276748657
			],
			"scale":[
				1,
				1.0000001192092896,
				1
			],
			"translation":[
				4.71482053399086e-09,
				0.026631904765963554,
				-3.5267433418084693e-07
			]
		},
		{
			"children":[
				11
			],
			"name":"pinky_02_l",
			"rotation":[
				1.173243724394979e-08,
				5.802303704172118e-08,
				-0.0017049507005140185,
				0.9999985694885254
			],
			"scale":[
				0.9999999403953552,
				0.9999999403953552,
				1
			],
			"translation":[
				-1.054468157235533e-08,
				0.030831879004836082,
				-1.0294272101418755e-07
			]
		},
		{
			"children":[
				12
			],
			"name":"pinky_01_l",
			"rotation":[
				-0.010447765700519085,
				0.7070325016975403,
				-0.010447826236486435,
				0.7070267200469971
			],
			"scale":[
				1,
				0.9999998807907104,
				1
			],
			"translation":[
				0.0038001772481948137,
				0.06994829326868057,
				-0.033994145691394806
			]
		},
		{
			"name":"ring_04_leaf_l",
			"rotation":[
				4.656590113505388e-10,
				1,
				-1.0973242713790965e-13,
				3.6517765238386346e-06
			],
			"translation":[
				-3.5388438845984638e-09,
				0.028301456943154335,
				5.385400214663605e-08
			]
		},
		{
			"children":[
				14
			],
			"name":"ring_03_l",
			"rotation":[
				2.4418557842409427e-08,
				-1.0502422542746359e-10,
				-0.0034885031636804342,
				0.9999939203262329
			],
			"scale":[
				0.9999999403953552,
				0.9999999403953552,
				1
			],
			"translation":[
				1.578428054926917e-08,
				0.027600176632404327,
				-3.846645029170759e-07
			]
		},
		{
			"children":[
				15
			],
			"name":"ring_02_l",
			"rotation":[
				-1.5805582620487257e-08,
				5.8704074490378844e-08,
				0.0024740637745708227,
				0.9999969601631165
			],
			"scale":[
				1,
				1.0000001192092896,
				1
			],
			"translation":[
				-1.939042704179883e-09,
				0.03500128164887428,
				2.993463965594856e-07
			]
		},
		{
			"children":[
				16
			],
			"name":"ring_01_l",
			"rotation":[
				0.0025809367652982473,
				0.7071049213409424,
				0.0025809528306126595,
				0.707099199295044
			],
			"scale":[
				1.0000001192092896,
				1.000000238418579,
				1.0000001192092896
			],
			"translation":[
				0.002200056565925479,
				0.08042968809604645,
				-0.013825268484652042
			]
		},
		{
			"name":"thumb_04_leaf_l",
			"rotation":[
				6.39134540847408e-08,
				0.4853910803794861,
				2.24695764217131e-08,
				0.8742971420288086
			],
			"scale":[
				1,
				1,
				1.0000001192092896
			],
			"translation":[
				2.1507730707526207e-08,
				0.03127270191907883,
				7.82310962677002e-08
			]
		},
		{
			"children":[
				18
			],
			"name":"thumb_03_l",
			"rotation":[
				-0.0012815530644729733,
				5.818186764372513e-05,
				0.00025462868507020175,
				0.9999991655349731
			],
			"scale":[
				1,
				1,
				0.9999999403953552
			],
			"translation":[
				4.314933903515339e-07,
				0.035620398819446564,
				-2.468004822731018e-08
			]
		},
		{
			"children":[
				19
			],
			"name":"thumb_02_l",
			"rotation":[
				0.001912856474518776,
				0.0001922689116327092,
				-0.0004483977681957185,
				0.9999980330467224
			],
			"scale":[
				1,
				1.0000001192092896,
				1
			],
			"translation":[
				-1.7470301827415824e-07,
				0.03582090511918068,
				-2.9802322387695312e-08
			]
		},
		{
			"children":[
				20
			],
			"name":"thumb_01_l",
			"rotation":[
				0.2639968991279602,
				0.9450141191482544,
				0.1882738471031189,
				0.04250799119472504
			],
			"scale":[
				1.0000001192092896,
				1.0000001192092896,
				1
			],
			"translation":[
				0.010000094771385193,
				-0.0028758251573890448,
				0.029958125203847885
			]
		},
		{
			"children":[
				5,
				9,
				13,
				17,
				21
			],
			"name":"hand_l",
			"rotation":[
				-0.022376008331775665,
				-2.2643962438451126e-06,
				-2.2317589554177175e-08,
				0.9997496008872986
			],
			"translation":[
				-9.749157925398322e-09,
				0.24930396676063538,
				2.3478605726268142e-09
			]
		},
		{
			"children":[
				22
			],
			"name":"lowerarm_l",
			"rotation":[
				0.02380218915641308,
				8.20540517452173e-05,
				-1.8788798570312792e-06,
				0.9997166991233826
			],
			"translation":[
				1.8792661649058573e-07,
				0.2403421401977539,
				-5.296897143125534e-09
			]
		},
		{
			"children":[
				23
			],
			"name":"upperarm_l",
			"rotation":[
				0.17232589423656464,
				0.6858593225479126,
				-0.17179431021213531,
				0.68584805727005
			],
			"scale":[
				1,
				1.0000001192092896,
				1.0000001192092896
			],
			"translation":[
				-0.0016045552911236882,
				0.1410660594701767,
				-0.012286130338907242
			]
		},
		{
			"children":[
				24
			],
			"name":"clavicle_l",
			"rotation":[
				-0.5471324324607849,
				-0.32042762637138367,
				-0.39127787947654724,
				0.6669886708259583
			],
			"scale":[
				1,
				0.9999999403953552,
				1
			],
			"translation":[
				0.029299993067979813,
				0.1337030529975891,
				0.044819410890340805
			]
		},
		{
			"name":"index_04_leaf_r",
			"rotation":[
				9.313182447456825e-10,
				-1,
				6.715918833289638e-15,
				3.5325672342878534e-06
			],
			"translation":[
				-5.302354111336172e-10,
				0.023510558530688286,
				2.0421060753506026e-07
			]
		},
		{
			"children":[
				26
			],
			"name":"index_03_r",
			"rotation":[
				8.956164698759039e-10,
				6.535772357346703e-12,
				0.0001332899701083079,
				1
			],
			"scale":[
				0.9999999403953552,
				0.9999999403953552,
				1
			],
			"translation":[
				-6.639311322942376e-11,
				0.027111755684018135,
				-3.279494364960556e-08
			]
		},
		{
			"children":[
				27
			],
			"name":"index_02_r",
			"rotation":[
				1.5817976262155753e-08,
				-3.7702022837038385e-08,
				0.0021401764824986458,
				0.9999977350234985
			],
			"scale":[
				0.9999998807907104,
				0.9999999403953552,
				1
			],
			"translation":[
				-1.7716956790536642e-09,
				0.031710051000118256,
				-8.449703159385535e-09
			]
		},
		{
			"children":[
				28
			],
			"name":"index_01_r",
			"rotation":[
				-0.0033092701341956854,
				-0.7071018218994141,
				0.0033092868980020285,
				0.7070962190628052
			],
			"scale":[
				1.0000001192092896,
				1,
				1
			],
			"translation":[
				-0.004199975170195103,
				0.08823645114898682,
				0.03620495647192001
			]
		},
		{
			"name":"middle_04_leaf_r",
			"rotation":[
				-1.3252728314717618e-15,
				-1,
				5.349887199912473e-15,
				3.5325672342878534e-06
			],
			"translation":[
				-2.3037500795908272e-09,
				0.02962053194642067,
				1.0511745074381906e-07
			]
		},
		{
			"children":[
				30
			],
			"name":"middle_03_r",
			"rotation":[
				2.2396026366777733e-08,
				1.59496804652548e-10,
				0.0032189541961997747,
				0.9999948143959045
			],
			"scale":[
				0.9999998807907104,
				0.9999998807907104,
				1
			],
			"translation":[
				4.2145984480157495e-09,
				0.02931375615298748,
				2.149462829947879e-08
			]
		},
		{
			"children":[
				31
			],
			"name":"middle_02_r",
			"rotation":[
				-2.70987960959701e-08,
				-3.768476375398677e-08,
				-0.003867650404572487,
				0.9999924898147583
			],
			"scale":[
				1,
				0.9999999403953552,
				1
			],
			"translation":[
				-4.144567355979234e-09,
				0.036426931619644165,
				2.171480133483783e-07
			]
		},
		{
			"children":[
				32
			],
			"name":"middle_01_r",
			"rotation":[
				-0.007979893125593662,
				-0.7070646286010742,
				0.007979937829077244,
				0.7070589065551758
			],
			"scale":[
				1,
				0.9999999403953552,
				1
			],
			"translation":[
				-0.0018999186577275395,
				0.086341492831707,
				0.010671667754650116
			]
		},
		{
			"name":"pinky_04_leaf_r",
			"rotation":[
				-2.793972164738534e-09,
				-1,
				3.2895143857111786e-13,
				3.65177675121231e-06
			],
			"translation":[
				6.4583218772895634e-09,
				0.020919322967529297,
				1.5312659229493875e-07
			]
		},
		{
			"children":[
				34
			],
			"name":"pinky_03_r",
			"rotation":[
				-2.0166030623158804e-08,
				-1.4835017936309924e-10,
				-0.0028987256810069084,
				0.9999958276748657
			],
			"translation":[
				-9.913492249324918e-10,
				0.026631755754351616,
				-1.164119396435126e-07
			]
		},
		{
			"children":[
				35
			],
			"name":"pinky_02_r",
			"rotation":[
				1.1696188906284988e-08,
				-3.7214181958233894e-08,
				0.001704889233224094,
				0.9999985694885254
			],
			"scale":[
				0.9999999403953552,
				0.9999999403953552,
				1
			],
			"translation":[
				2.128217602148652e-10,
				0.030831918120384216,
				1.6265474300780625e-08
			]
		},
		{
			"children":[
				36
			],
			"name":"pinky_01_r",
			"rotation":[
				-0.010447803884744644,
				-0.7070325016975403,
				0.010447866283357143,
				0.7070267200469971
			],
			"scale":[
				1,
				0.9999998211860657,
				1
			],
			"translation":[
				-0.003800058038905263,
				0.06994826346635818,
				-0.03399414196610451
			]
		},
		{
			"name":"ring_04_leaf_r",
			"rotation":[
				-2.3283514005711936e-10,
				-1,
				1.4840084998531122e-14,
				3.651776296464959e-06
			],
			"scale":[
				0.9999999403953552,
				0.9999996423721313,
				1
			],
			"translation":[
				-5.776200850959867e-09,
				0.02830154448747635,
				1.7066204804905283e-07
			]
		},
		{
			"children":[
				38
			],
			"name":"ring_03_r",
			"rotation":[
				2.427617751266098e-08,
				1.821558182069083e-10,
				0.0034885017666965723,
				0.9999939203262329
			],
			"translation":[
				-1.4158104022499174e-08,
				0.027600202709436417,
				-1.4886099108935014e-07
			]
		},
		{
			"children":[
				39
			],
			"name":"ring_02_r",
			"rotation":[
				-1.5755361459923733e-08,
				-3.83553491190014e-08,
				-0.002474055392667651,
				0.9999969601631165
			],
			"translation":[
				7.95444066170603e-09,
				0.03500130772590637,
				2.993463397160667e-07
			]
		},
		{
			"children":[
				40
			],
			"name":"ring_01_r",
			"rotation":[
				0.002580946311354637,
				-0.7071049213409424,
				-0.0025809630751609802,
				0.707099199295044
			],
			"translation":[
				-0.002199937356635928,
				0.08042959868907928,
				-0.013825279660522938
			]
		},
		{
			"name":"thumb_04_leaf_r",
			"rotation":[
				8.947884566623543e-08,
				-0.48539113998413086,
				-2.2968899671127474e-08,
				0.8742971420288086
			],
			"scale":[
				1,
				1,
				0.9999999403953552
			],
			"translation":[
				7.078051567077637e-08,
				0.031272731721401215,
				1.2852251529693604e-07
			]
		},
		{
			"children":[
				42
			],
			"name":"thumb_03_r",
			"rotation":[
				-0.001281767268665135,
				-5.8082212490262464e-05,
				-0.00025411599199287593,
				0.9999991655349731
			],
			"translation":[
				-5.821384547743946e-07,
				0.03562026098370552,
				-4.470348358154297e-08
			]
		},
		{
			"children":[
				43
			],
			"name":"thumb_02_r",
			"rotation":[
				0.0019125830149278045,
				-0.00019216694636270404,
				0.00044883950613439083,
				0.9999980330467224
			],
			"scale":[
				1,
				0.9999999403953552,
				0.9999999403953552
			],
			"translation":[
				-1.1539668776094913e-07,
				0.03582097962498665,
				-2.8870999813079834e-08
			]
		},
		{
			"children":[
				44
			],
			"name":"thumb_01_r",
			"rotation":[
				0.2639978229999542,
				-0.9450138807296753,
				-0.18827374279499054,
				0.04250765219330788
			],
			"scale":[
				0.9999999403953552,
				1.0000003576278687,
				1.0000001192092896
			],
			"translation":[
				-0.009999975562095642,
				-0.0028758563566952944,
				0.029958127066493034
			]
		},
		{
			"children":[
				29,
				33,
				37,
				41,
				45
			],
			"name":"hand_r",
			"rotation":[
				-0.02237602323293686,
				2.2644258024229202e-06,
				2.2317584225106657e-08,
				0.9997496008872986
			],
			"scale":[
				1,
				0.9999999403953552,
				1
			],
			"translation":[
				1.2895542056412523e-07,
				0.24930404126644135,
				-3.583409124985337e-10
			]
		},
		{
			"children":[
				46
			],
			"name":"lowerarm_r",
			"rotation":[
				0.02380218356847763,
				-8.213167893700302e-05,
				1.8912654695668607e-06,
				0.9997166991233826
			],
			"scale":[
				1,
				1,
				0.9999999403953552
			],
			"translation":[
				-6.897971616126597e-08,
				0.24034211039543152,
				5.107722245156765e-09
			]
		},
		{
			"children":[
				47
			],
			"name":"upperarm_r",
			"rotation":[
				0.17232586443424225,
				-0.6858592629432678,
				0.17179431021213531,
				0.6858481168746948
			],
			"scale":[
				0.9999999403953552,
				1.0000001192092896,
				1.0000001192092896
			],
			"translation":[
				0.0016045494703575969,
				0.1410660445690155,
				-0.012286252342164516
			]
		},
		{
			"children":[
				48
			],
			"name":"clavicle_r",
			"rotation":[
				-0.5471324324607849,
				0.3204275369644165,
				0.39127781987190247,
				0.666988730430603
			],
			"scale":[
				0.9999998211860657,
				0.9999999403953552,
				0.9999998807907104
			],
			"translation":[
				-0.02930000051856041,
				0.1337030529975891,
				0.04481937736272812
			]
		},
		{
			"children":[
				1,
				25,
				49
			],
			"name":"spine_03",
			"rotation":[
				-0.10099762678146362,
				-3.361323308581632e-08,
				-1.304816787950358e-08,
				0.9948866963386536
			],
			"translation":[
				2.4143013976907213e-15,
				0.12640145421028137,
				-1.4901161193847656e-08
			]
		},
		{
			"children":[
				50
			],
			"name":"spine_02",
			"rotation":[
				-0.05572862923145294,
				-4.984097176929936e-05,
				-2.7909743494092254e-06,
				0.998445987701416
			],
			"scale":[
				1,
				0.9999998807907104,
				0.9999999403953552
			],
			"translation":[
				-1.1426440306092078e-12,
				0.1103447675704956,
				1.792795956134796e-08
			]
		},
		{
			"children":[
				51
			],
			"name":"spine_01",
			"rotation":[
				-0.06393158435821533,
				4.977786375093274e-05,
				-3.204262611689046e-06,
				0.9979543089866638
			],
			"translation":[
				-1.3607405133231332e-12,
				0.12655523419380188,
				-7.264316082000732e-08
			]
		},
		{
			"name":"ball_leaf_l",
			"rotation":[
				-1.9367938364212023e-09,
				0.0001727771887090057,
				-3.2183240447625217e-12,
				1
			],
			"translation":[
				1.2304519625416788e-09,
				0.06809969246387482,
				-6.31068530765333e-10
			]
		},
		{
			"children":[
				53
			],
			"name":"ball_l",
			"rotation":[
				-3.2927269785432145e-05,
				0.9816133379936218,
				-0.19088023900985718,
				0.0001697494153631851
			],
			"scale":[
				1,
				1.0000001192092896,
				0.9999998211860657
			],
			"translation":[
				1.5736937086785474e-08,
				0.1491694152355194,
				-1.858898457385294e-08
			]
		},
		{
			"children":[
				54
			],
			"name":"foot_l",
			"rotation":[
				-0.5978575348854065,
				1.3927991915352322e-07,
				-1.5122979846182716e-07,
				0.8016024231910706
			],
			"scale":[
				1,
				0.9999999403953552,
				0.9999998807907104
			],
			"translation":[
				8.338583157296853e-09,
				0.4661003649234772,
				-2.818452138342309e-09
			]
		},
		{
			"children":[
				55
			],
			"name":"calf_l",
			"rotation":[
				0.07122272998094559,
				-2.5442346895943047e-08,
				5.6580704566044915e-09,
				0.9974604249000549
			],
			"scale":[
				1,
				0.9999999403953552,
				1
			],
			"translation":[
				-1.0260367666603543e-08,
				0.4098643362522125,
				4.6986237123292085e-09
			]
		},
		{
			"children":[
				56
			],
			"name":"thigh_l",
			"rotation":[
				0.9893750548362732,
				-9.795000366352724e-09,
				1.8341077634431713e-07,
				0.1453859955072403
			],
			"scale":[
				1,
				1.0000001192092896,
				1.0000027418136597
			],
			"translation":[
				0.11139998584985733,
				0.010460044257342815,
				-0.008893008343875408
			]
		},
		{
			"name":"ball_leaf_r",
			"rotation":[
				-1.9367938364212023e-09,
				0.0001727771887090057,
				-3.2254294721201227e-12,
				1
			],
			"translation":[
				1.2304537388985182e-09,
				0.06809969246387482,
				-9.948664114745043e-10
			]
		},
		{
			"children":[
				58
			],
			"name":"ball_r",
			"rotation":[
				-3.2927269785432145e-05,
				0.9816133379936218,
				-0.19088023900985718,
				0.0001697494153631851
			],
			"scale":[
				1,
				1.0000001192092896,
				0.9999998211860657
			],
			"translation":[
				-1.4065387077266678e-08,
				0.1491694152355194,
				-1.6801273261535243e-08
			]
		},
		{
			"children":[
				59
			],
			"name":"foot_r",
			"rotation":[
				-0.5978575348854065,
				1.392799049426685e-07,
				-1.5122981267268187e-07,
				0.8016024231910706
			],
			"scale":[
				1,
				0.9999999403953552,
				0.9999998807907104
			],
			"translation":[
				-6.562578480640013e-09,
				0.4661003649234772,
				-5.563451033196998e-09
			]
		},
		{
			"children":[
				60
			],
			"name":"calf_r",
			"rotation":[
				0.07122272998094559,
				-2.5442346895943047e-08,
				5.6580704566044915e-09,
				0.9974604249000549
			],
			"scale":[
				1,
				0.9999999403953552,
				1
			],
			"translation":[
				4.640793527244114e-09,
				0.4098643362522125,
				4.614602033825577e-09
			]
		},
		{
			"children":[
				61
			],
			"name":"thigh_r",
			"rotation":[
				0.9893750548362732,
				-9.795000366352724e-09,
				1.8341077634431713e-07,
				0.1453859955072403
			],
			"scale":[
				1,
				1.0000001192092896,
				1.0000027418136597
			],
			"translation":[
				-0.11139998584985733,
				0.010460044257342815,
				-0.008893062360584736
			]
		},
		{
			"children":[
				52,
				57,
				62
			],
			"name":"pelvis",
			"rotation":[
				0.7879695892333984,
				7.397003543019309e-08,
				9.466427997040228e-08,
				0.6157141327857971
			],
			"translation":[
				0,
				0.04569995403289795,
				0.9317998886108398
			]
		},
		{
			"children":[
				63
			],
			"name":"root",
			"rotation":[
				-0.7071067690849304,
				0,
				0,
				0.7071067690849304
			]
		},
		{
			"mesh":0,
			"name":"Base_Head",
			"skin":0
		},
		{
			"mesh":1,
			"name":"Eyebrows",
			"skin":0
		},
		{
			"mesh":2,
			"name":"Eyes",
			"skin":0
		},
		{
			"children":[
				65,
				66,
				67,
				64
			],
			"name":"Armature"
		}
	],
	"materials":[
		{
			"doubleSided":true,
			"name":"MI_Superhero_Female",
			"normalTexture":{
				"index":0
			},
			"pbrMetallicRoughness":{
				"baseColorTexture":{
					"index":1
				},
				"metallicFactor":0,
				"metallicRoughnessTexture":{
					"index":2
				}
			}
		},
		{
			"doubleSided":true,
			"name":"MI_Hair_2",
			"normalTexture":{
				"index":3
			},
			"pbrMetallicRoughness":{
				"baseColorTexture":{
					"index":4
				},
				"metallicFactor":0,
				"roughnessFactor":0.8227272629737854
			}
		},
		{
			"doubleSided":true,
			"name":"MI_Eyes",
			"pbrMetallicRoughness":{
				"baseColorTexture":{
					"index":5
				},
				"metallicFactor":0,
				"roughnessFactor":0.34545454382896423
			}
		}
	],
	"meshes":[
		{
			"name":"Superhero_Female.001",
			"primitives":[
				{
					"attributes":{
						"POSITION":0,
						"NORMAL":1,
						"TEXCOORD_0":2,
						"TEXCOORD_1":3,
						"TEXCOORD_2":4,
						"TEXCOORD_3":5,
						"TEXCOORD_4":6,
						"COLOR_0":7,
						"COLOR_1":8,
						"COLOR_2":9,
						"JOINTS_0":10,
						"WEIGHTS_0":11
					},
					"indices":12,
					"material":0
				}
			]
		},
		{
			"name":"Eyebrows",
			"primitives":[
				{
					"attributes":{
						"POSITION":14,
						"NORMAL":15,
						"TEXCOORD_0":16,
						"TEXCOORD_1":17,
						"TEXCOORD_2":18,
						"TEXCOORD_3":19,
						"COLOR_0":20,
						"COLOR_1":21,
						"JOINTS_0":22,
						"WEIGHTS_0":23
					},
					"indices":24,
					"material":1
				}
			]
		},
		{
			"name":"Eyes",
			"primitives":[
				{
					"attributes":{
						"POSITION":25,
						"NORMAL":26,
						"TEXCOORD_0":27,
						"TEXCOORD_1":28,
						"TEXCOORD_2":29,
						"TEXCOORD_3":30,
						"COLOR_0":31,
						"COLOR_1":32,
						"JOINTS_0":33,
						"WEIGHTS_0":34
					},
					"indices":35,
					"material":2
				}
			]
		}
	],
	"textures":[
		{
			"sampler":0,
			"source":0
		},
		{
			"sampler":0,
			"source":1
		},
		{
			"sampler":0,
			"source":2
		},
		{
			"sampler":0,
			"source":3
		},
		{
			"sampler":0,
			"source":4
		},
		{
			"sampler":0,
			"source":5
		}
	],
	"images":[
		{
			"mimeType":"image/png",
			"name":"T_Superhero_Female_Normal",
			"uri":"T_Superhero_Female_Normal.png"
		},
		{
			"mimeType":"image/png",
			"name":"T_Superhero_Female_Dark_BaseColor",
			"uri":"T_Superhero_Female_Dark_BaseColor.png"
		},
		{
			"mimeType":"image/png",
			"name":"T_Superhero_Female_Roughness",
			"uri":"T_Superhero_Female_Roughness.png"
		},
		{
			"mimeType":"image/png",
			"name":"T_Hair_2_Normal",
			"uri":"T_Hair_2_Normal.png"
		},
		{
			"mimeType":"image/png",
			"name":"T_Hair_2_BaseColor",
			"uri":"T_Hair_2_BaseColor.png"
		},
		{
			"mimeType":"image/png",
			"name":"T_Eye_Brown",
			"uri":"T_Eye_Brown.png"
		}
	],
	"skins":[
		{
			"inverseBindMatrices":13,
			"joints":[
				64,
				63,
				52,
				51,
				50,
				1,
				0,
				25,
				24,
				23,
				22,
				5,
				4,
				3,
				2,
				9,
				8,
				7,
				6,
				13,
				12,
				11,
				10,
				17,
				16,
				15,
				14,
				21,
				20,
				19,
				18,
				49,
				48,
				47,
				46,
				29,
				28,
				27,
				26,
				33,
				32,
				31,
				30,
				37,
				36,
				35,
				34,
				41,
				40,
				39,
				38,
				45,
				44,
				43,
				42,
				57,
				56,
				55,
				54,
				53,
				62,
				61,
				60,
				59,
				58
			],
			"name":"Armature"
		}
	],
	"accessors":[
		{
			"bufferView":0,
			"componentType":5126,
			"count":1667,
			"max":[
				0.08887842297554016,
				1.7666435241699219,
				0.11192343384027481
			],
			"min":[
				-0.08887842297554016,
				1.479688048362732,
				-0.11289945244789124
			],
			"type":"VEC3"
		},
		{
			"bufferView":1,
			"componentType":5126,
			"count":1667,
			"type":"VEC3"
		},
		{
			"bufferView":2,
			"componentType":5126,
			"count":1667,
			"type":"VEC2"
		},
		{
			"bufferView":3,
			"componentType":5126,
			"count":1667,
			"type":"VEC2"
		},
		{
			"bufferView":4,
			"componentType":5126,
			"count":1667,
			"type":"VEC2"
		},
		{
			"bufferView":5,
			"componentType":5126,
			"count":1667,
			"type":"VEC2"
		},
		{
			"bufferView":6,
			"componentType":5126,
			"count":1667,
			"type":"VEC2"
		},
		{
			"bufferView":7,
			"componentType":5126,
			"count":1667,
			"type":"VEC3"
		},
		{
			"bufferView":8,
			"componentType":5126,
			"count":1667,
			"type":"VEC3"
		},
		{
			"bufferView":9,
			"componentType":5126,
			"count":1667,
			"type":"VEC3"
		},
		{
			"bufferView":10,
			"componentType":5121,
			"count":1667,
			"type":"VEC4"
		},
		{
			"bufferView":11,
			"componentType":5126,
			"count":1667,
			"type":"VEC4"
		},
		{
			"bufferView":12,
			"componentType":5123,
			"count":9210,
			"type":"SCALAR"
		},
		{
			"bufferView":13,
			"componentType":5126,
			"count":65,
			"type":"MAT4"
		},
		{
			"bufferView":14,
			"componentType":5126,
			"count":912,
			"max":[
				0.06299881637096405,
				1.68690025806427,
				0.09157125651836395
			],
			"min":[
				-0.06299881637096405,
				1.6492886543273926,
				0.05128489062190056
			],
			"type":"VEC3"
		},
		{
			"bufferView":15,
			"componentType":5126,
			"count":912,
			"type":"VEC3"
		},
		{
			"bufferView":16,
			"componentType":5126,
			"count":912,
			"type":"VEC2"
		},
		{
			"bufferView":17,
			"componentType":5126,
			"count":912,
			"type":"VEC2"
		},
		{
			"bufferView":18,
			"componentType":5126,
			"count":912,
			"type":"VEC2"
		},
		{
			"bufferView":19,
			"componentType":5126,
			"count":912,
			"type":"VEC2"
		},
		{
			"bufferView":20,
			"componentType":5126,
			"count":912,
			"type":"VEC3"
		},
		{
			"bufferView":21,
			"componentType":5126,
			"count":912,
			"type":"VEC3"
		},
		{
			"bufferView":22,
			"componentType":5121,
			"count":912,
			"type":"VEC4"
		},
		{
			"bufferView":23,
			"componentType":5126,
			"count":912,
			"type":"VEC4"
		},
		{
			"bufferView":24,
			"componentType":5123,
			"count":4440,
			"type":"SCALAR"
		},
		{
			"bufferView":25,
			"componentType":5126,
			"count":556,
			"max":[
				0.05105403810739517,
				1.6725529432296753,
				0.07533323019742966
			],
			"min":[
				-0.05105403810739517,
				1.6395373344421387,
				0.04291463643312454
			],
			"type":"VEC3"
		},
		{
			"bufferView":26,
			"componentType":5126,
			"count":556,
			"type":"VEC3"
		},
		{
			"bufferView":27,
			"componentType":5126,
			"count":556,
			"type":"VEC2"
		},
		{
			"bufferView":28,
			"componentType":5126,
			"count":556,
			"type":"VEC2"
		},
		{
			"bufferView":29,
			"componentType":5126,
			"count":556,
			"type":"VEC2"
		},
		{
			"bufferView":30,
			"componentType":5126,
			"count":556,
			"type":"VEC2"
		},
		{
			"bufferView":31,
			"componentType":5126,
			"count":556,
			"type":"VEC3"
		},
		{
			"bufferView":32,
			"componentType":5126,
			"count":556,
			"type":"VEC3"
		},
		{
			"bufferView":33,
			"componentType":5121,
			"count":556,
			"type":"VEC4"
		},
		{
			"bufferView":34,
			"componentType":5126,
			"count":556,
			"type":"VEC4"
		},
		{
			"bufferView":35,
			"componentType":5123,
			"count":2304,
			"type":"SCALAR"
		}
	],
	"bufferViews":[
		{
			"buffer":0,
			"byteLength":20004,
			"byteOffset":0,
			"target":34962
		},
		{
			"buffer":0,
			"byteLength":20004,
			"byteOffset":20004,
			"target":34962
		},
		{
			"buffer":0,
			"byteLength":13336,
			"byteOffset":40008,
			"target":34962
		},
		{
			"buffer":0,
			"byteLength":13336,
			"byteOffset":53344,
			"target":34962
		},
		{
			"buffer":0,
			"byteLength":13336,
			"byteOffset":66680,
			"target":34962
		},
		{
			"buffer":0,
			"byteLength":13336,
			"byteOffset":80016,
			"target":34962
		},
		{
			"buffer":0,
			"byteLength":13336,
			"byteOffset":93352,
			"target":34962
		},
		{
			"buffer":0,
			"byteLength":20004,
			"byteOffset":106688,
			"target":34962
		},
		{
			"buffer":0,
			"byteLength":20004,
			"byteOffset":126692,
			"target":34962
		},
		{
			"buffer":0,
			"byteLength":20004,
			"byteOffset":146696,
			"target":34962
		},
		{
			"buffer":0,
			"byteLength":6668,
			"byteOffset":166700,
			"target":34962
		},
		{
			"buffer":0,
			"byteLength":26672,
			"byteOffset":173368,
			"target":34962
		},
		{
			"buffer":0,
			"byteLength":18420,
			"byteOffset":200040,
			"target":34963
		},
		{
			"buffer":0,
			"byteLength":4160,
			"byteOffset":218460
		},
		{
			"buffer":0,
			"byteLength":10944,
			"byteOffset":222620,
			"target":34962
		},
		{
			"buffer":0,
			"byteLength":10944,
			"byteOffset":233564,
			"target":34962
		},
		{
			"buffer":0,
			"byteLength":7296,
			"byteOffset":244508,
			"target":34962
		},
		{
			"buffer":0,
			"byteLength":7296,
			"byteOffset":251804,
			"target":34962
		},
		{
			"buffer":0,
			"byteLength":7296,
			"byteOffset":259100,
			"target":34962
		},
		{
			"buffer":0,
			"byteLength":7296,
			"byteOffset":266396,
			"target":34962
		},
		{
			"buffer":0,
			"byteLength":10944,
			"byteOffset":273692,
			"target":34962
		},
		{
			"buffer":0,
			"byteLength":10944,
			"byteOffset":284636,
			"target":34962
		},
		{
			"buffer":0,
			"byteLength":3648,
			"byteOffset":295580,
			"target":34962
		},
		{
			"buffer":0,
			"byteLength":14592,
			"byteOffset":299228,
			"target":34962
		},
		{
			"buffer":0,
			"byteLength":8880,
			"byteOffset":313820,
			"target":34963
		},
		{
			"buffer":0,
			"byteLength":6672,
			"byteOffset":322700,
			"target":34962
		},
		{
			"buffer":0,
			"byteLength":6672,
			"byteOffset":329372,
			"target":34962
		},
		{
			"buffer":0,
			"byteLength":4448,
			"byteOffset":336044,
			"target":34962
		},
		{
			"buffer":0,
			"byteLength":4448,
			"byteOffset":340492,
			"target":34962
		},
		{
			"buffer":0,
			"byteLength":4448,
			"byteOffset":344940,
			"target":34962
		},
		{
			"buffer":0,
			"byteLength":4448,
			"byteOffset":349388,
			"target":34962
		},
		{
			"buffer":0,
			"byteLength":6672,
			"byteOffset":353836,
			"target":34962
		},
		{
			"buffer":0,
			"byteLength":6672,
			"byteOffset":360508,
			"target":34962
		},
		{
			"buffer":0,
			"byteLength":2224,
			"byteOffset":367180,
			"target":34962
		},
		{
			"buffer":0,
			"byteLength":8896,
			"byteOffset":369404,
			"target":34962
		},
		{
			"buffer":0,
			"byteLength":4608,
			"byteOffset":378300,
			"target":34963
		}
	],
	"samplers":[
		{
			"magFilter":9729,
			"minFilter":9987
		}
	],
	"buffers":[
		{
			"byteLength":382908,
			"uri":"Base_Female_Head.bin"
		}
	]
}
